# This file uses centimeters as units for non-parametric coordinates.

mtllib Nave_Espacial.mtl
g default
v -0.440342 -0.440342 0.961572
v 0.440342 -0.440342 0.961572
v -0.440342 0.440342 0.961572
v 0.440342 0.440342 0.961572
v -0.440342 0.440342 -0.961572
v 0.440342 0.440342 -0.961572
v -0.440342 -0.440342 -0.961572
v 0.440342 -0.440342 -0.961572
v -0.831329 0.500000 -0.545923
v -0.831329 -0.500000 -0.545923
v 0.831329 -0.500000 -0.545923
v 0.831329 0.500000 -0.545923
v -0.831329 0.500000 0.545923
v -0.831329 -0.500000 0.545923
v 0.831329 -0.500000 0.545923
v 0.831329 0.500000 0.545923
v -0.640002 -0.278863 -0.545923
v -1.059574 -0.461680 0.000000
v -1.059574 0.461680 0.000000
v -0.640002 0.278863 -0.545923
v 0.640002 -0.278863 -0.545923
v 1.059574 -0.461680 0.000000
v 1.059574 0.461680 0.000000
v 0.640002 0.278863 -0.545923
v -0.640002 -0.278863 0.545923
v -0.640002 0.278863 0.545923
v 0.640002 -0.278863 0.545923
v 0.640002 0.278863 0.545923
v 1.628028 -0.308159 0.545923
v 1.237040 -0.271390 0.961572
v 1.628028 0.308159 0.545923
v 1.237040 0.271390 0.961572
v 0.831329 -0.308159 0.545923
v 0.440342 -0.271390 0.961572
v 0.831329 0.308159 0.545923
v 0.440342 0.271390 0.961572
v 1.628028 -0.308159 -0.545923
v 1.628028 0.308159 -0.545923
v 1.237040 -0.271390 -0.961572
v 1.237040 0.271390 -0.961572
v 0.831329 -0.308159 -0.545923
v 0.831329 0.308159 -0.545923
v 0.440342 -0.271390 -0.961572
v 0.440342 0.271390 -0.961572
v -1.386382 -0.208512 -0.408198
v -1.700104 -0.345207 0.000000
v -1.700104 0.345207 0.000000
v -1.386382 0.208512 -0.408198
v -1.386382 -0.208512 0.408198
v -1.386382 0.208512 0.408198
v -0.793026 -0.208512 -0.408198
v -1.106748 -0.345207 0.000000
v -1.106748 0.345207 0.000000
v -0.793026 0.208512 -0.408198
v -0.793026 -0.208512 0.408198
v -0.793026 0.208512 0.408198
v -0.271307 0.103593 1.825064
v 0.271307 0.103593 1.825064
v -0.271307 -0.103593 1.825064
v 0.271307 -0.103593 1.825064
v 0.271307 -0.063846 1.825064
v 0.271307 0.063846 1.825064
v -0.271307 -0.103593 -1.825064
v 0.271307 -0.103593 -1.825064
v -0.271307 0.103593 -1.825064
v 0.271307 0.103593 -1.825064
v 0.271307 0.063846 -1.825064
v 0.271307 -0.063846 -1.825064
v -0.271307 -0.063846 -1.825064
v -0.440342 -0.063846 -0.961572
v -0.831329 -0.063846 -0.545923
v -0.640002 -0.063846 -0.545923
v -0.793026 -0.063846 -0.408198
v -1.386382 -0.063846 -0.408198
v -1.700104 -0.063846 0.000000
v -1.386382 -0.063846 0.408198
v -0.793026 -0.063846 0.408198
v -0.640002 -0.063846 0.545923
v -0.831329 -0.063846 0.545923
v -0.440342 -0.063846 0.961572
v -0.271307 -0.063846 1.825064
v -0.271307 0.063846 -1.825064
v -0.440342 0.133119 -0.961572
v -0.831329 0.162948 -0.545923
v -0.640002 0.052380 -0.545923
v -0.793026 0.017204 -0.408198
v -1.386382 0.017204 -0.408198
v -1.700104 0.085552 0.000000
v -1.386382 0.017204 0.408198
v -0.793026 0.017204 0.408198
v -0.640002 0.052380 0.545923
v -0.831329 0.162948 0.545923
v -0.440342 0.133119 0.961572
v -0.271307 0.063846 1.825064
v 0.640002 0.138402 -0.545923
v 1.059574 0.167182 0.000000
v 0.640002 0.139858 0.545923
v 0.640002 -0.096953 0.545923
v 1.059574 -0.037762 0.000000
v 0.640002 -0.089168 -0.545923
vt 0.375000 0.000000
vt 0.625000 0.000000
vt 0.375000 0.250000
vt 0.625000 0.250000
vt 0.375000 0.500000
vt 0.625000 0.500000
vt 0.375000 0.750000
vt 0.625000 0.750000
vt 0.375000 1.000000
vt 0.625000 1.000000
vt 0.875000 0.000000
vt 0.875000 0.250000
vt 0.125000 0.000000
vt 0.125000 0.250000
vt 0.250000 0.250000
vt 0.375000 0.375000
vt 0.250000 0.000000
vt 0.375000 0.875000
vt 0.625000 0.875000
vt 0.750000 0.000000
vt 0.625000 0.375000
vt 0.750000 0.250000
vt 0.187500 0.250000
vt 0.375000 0.437500
vt 0.187500 0.000000
vt 0.375000 0.812500
vt 0.625000 0.812500
vt 0.812500 0.000000
vt 0.625000 0.437500
vt 0.812500 0.250000
vt 0.312500 0.250000
vt 0.375000 0.312500
vt 0.312500 0.000000
vt 0.375000 0.937500
vt 0.625000 0.937500
vt 0.687500 0.000000
vt 0.625000 0.312500
vt 0.687500 0.250000
vt 0.187500 0.250000
vt 0.187500 0.000000
vt 0.375000 0.812500
vt 0.625000 0.812500
vt 0.812500 0.000000
vt 0.812500 0.250000
vt 0.625000 0.437500
vt 0.375000 0.437500
vt 0.312500 0.000000
vt 0.312500 0.250000
vt 0.625000 0.937500
vt 0.375000 0.937500
vt 0.687500 0.250000
vt 0.687500 0.000000
vt 0.375000 0.312500
vt 0.625000 0.312500
vt 0.625000 0.000000
vt 0.687500 0.000000
vt 0.687500 0.250000
vt 0.625000 0.250000
vt 0.812500 0.250000
vt 0.812500 0.000000
vt 0.875000 0.000000
vt 0.875000 0.250000
vt 0.625000 0.000000
vt 0.687500 0.000000
vt 0.687500 0.250000
vt 0.625000 0.250000
vt 0.812500 0.250000
vt 0.812500 0.000000
vt 0.875000 0.000000
vt 0.875000 0.250000
vt 0.187500 0.000000
vt 0.250000 0.000000
vt 0.250000 0.250000
vt 0.187500 0.250000
vt 0.312500 0.000000
vt 0.312500 0.250000
vt 0.187500 0.000000
vt 0.250000 0.000000
vt 0.250000 0.250000
vt 0.187500 0.250000
vt 0.312500 0.000000
vt 0.312500 0.250000
vt 0.625000 0.250000
vt 0.375000 0.250000
vt 0.375000 1.000000
vt 0.625000 0.000000
vt 0.625000 0.000000
vt 0.625000 0.250000
vt 0.625000 0.750000
vt 0.125000 0.000000
vt 0.375000 0.500000
vt 0.875000 0.250000
vt 0.875000 0.250000
vt 0.875000 0.000000
vt 0.250000 0.250000
vt 0.125000 0.125000
vt 0.250000 0.250000
vt 0.187500 0.125000
vt 0.187500 0.125000
vt 0.187500 0.125000
vt 0.187500 0.125000
vt 0.250000 0.125000
vt 0.312500 0.125000
vt 0.312500 0.125000
vt 0.312500 0.125000
vt 0.312500 0.125000
vt 0.375000 0.125000
vt 0.375000 0.625000
vt 0.375000 0.625000
vt 0.312500 0.375000
vt 0.125000 0.187500
vt 0.312500 0.375000
vt 0.187500 0.187500
vt 0.187500 0.187500
vt 0.187500 0.187500
vt 0.187500 0.187500
vt 0.250000 0.187500
vt 0.312500 0.187500
vt 0.312500 0.187500
vt 0.312500 0.187500
vt 0.312500 0.187500
vt 0.375000 0.187500
vt 0.375000 0.437500
vt 0.375000 0.437500
vt 0.812500 0.187038
vt 0.750000 0.170264
vt 0.687500 0.187691
vt 0.687500 0.081541
vt 0.750000 0.114776
vt 0.812500 0.085031
vn 0.000000 0.989856 0.142074
vn 0.000000 0.989856 0.142074
vn 0.000000 0.989856 0.142074
vn 0.000000 0.989856 0.142074
vn 0.000000 -0.989856 0.142074
vn 0.000000 -0.989856 0.142074
vn 0.000000 -0.989856 0.142074
vn 0.000000 -0.989856 0.142074
vn 0.728384 0.000000 0.685169
vn 0.728384 0.000000 0.685169
vn 0.728384 0.000000 0.685169
vn 0.728384 0.000000 0.685169
vn -0.728385 0.000000 0.685168
vn -0.728385 0.000000 0.685168
vn -0.728385 0.000000 0.685168
vn -0.728385 0.000000 0.685168
vn -0.792883 0.000000 -0.609374
vn -1.000000 0.000000 -0.000000
vn -1.000000 0.000000 -0.000000
vn -0.792883 0.000000 -0.609374
vn 0.000000 -0.948244 -0.317544
vn 0.000000 -0.948244 -0.317544
vn 0.000000 -1.000000 -0.000000
vn 0.000000 -1.000000 -0.000000
vn 0.792883 0.000000 -0.609373
vn 0.999995 0.000000 0.003313
vn 1.000000 0.000000 0.000404
vn 0.792883 0.000000 -0.609373
vn 0.000000 1.000000 0.000000
vn 0.000000 1.000000 0.000000
vn 0.000000 0.948244 -0.317544
vn 0.000000 0.948244 -0.317544
vn -0.728385 0.000000 -0.685168
vn -0.728385 0.000000 -0.685168
vn -0.728385 0.000000 -0.685168
vn -0.728385 0.000000 -0.685168
vn 0.000000 -0.989856 -0.142075
vn 0.000000 -0.989856 -0.142075
vn 0.000000 -0.989856 -0.142075
vn 0.000000 -0.989856 -0.142075
vn 0.728384 0.000000 -0.685169
vn 0.728384 0.000000 -0.685169
vn 0.728384 0.000000 -0.685169
vn 0.728384 0.000000 -0.685169
vn 0.000000 0.989856 -0.142075
vn 0.000000 0.989856 -0.142075
vn 0.000000 0.989856 -0.142075
vn 0.000000 0.989856 -0.142075
vn -0.792883 0.000000 0.609374
vn -0.792883 0.000000 0.609374
vn 0.000000 -0.948244 0.317544
vn 0.000000 -0.948244 0.317544
vn 0.792883 0.000000 0.609374
vn 0.792883 0.000000 0.609373
vn 0.000000 0.948244 0.317544
vn 0.000000 0.948244 0.317544
vn 0.000000 0.000000 1.000000
vn 0.000000 0.000000 1.000000
vn 0.000000 0.000000 1.000000
vn 0.000000 0.000000 1.000000
vn 0.000000 0.000000 1.000000
vn 0.000000 0.000000 1.000000
vn 0.000000 0.000000 1.000000
vn 0.000000 0.000000 1.000000
vn -0.000000 0.000000 1.000000
vn -0.000000 0.000000 1.000000
vn 0.000000 0.000000 1.000000
vn 0.000000 0.000000 1.000000
vn 0.000000 0.000000 1.000000
vn 0.000000 0.000000 1.000000
vn 0.000000 0.000000 1.000000
vn 0.000000 0.000000 1.000000
vn 0.000000 0.000000 -1.000000
vn 0.000000 0.000000 -1.000000
vn 0.000000 0.000000 -1.000000
vn 0.000000 0.000000 -1.000000
vn 0.000000 0.000000 -1.000000
vn 0.000000 0.000000 -1.000000
vn 0.000000 0.000000 -1.000000
vn 0.000000 0.000000 -1.000000
vn 0.000000 0.000000 -1.000000
vn 0.000000 0.000000 -1.000000
vn 0.000000 0.000000 -1.000000
vn 0.000000 0.000000 -1.000000
vn 0.000000 -0.996110 0.088116
vn 0.000000 -0.996110 0.088116
vn 0.000000 -0.996110 0.088116
vn 0.000000 -0.996110 0.088116
vn 0.000000 0.000000 -1.000000
vn 0.000000 0.000000 -1.000000
vn 0.000000 0.000000 -1.000000
vn 0.000000 0.000000 -1.000000
vn 0.000000 0.996110 0.088116
vn 0.000000 0.996110 0.088116
vn 0.000000 0.996110 0.088116
vn 0.000000 0.996110 0.088116
vn 0.000000 0.000000 1.000000
vn 0.000000 0.000000 1.000000
vn 0.000000 0.000000 1.000000
vn 0.000000 0.000000 1.000000
vn 0.000000 0.000000 1.000000
vn 0.000000 0.000000 1.000000
vn 0.000000 0.000000 1.000000
vn 0.000000 0.000000 1.000000
vn 0.000000 -0.996110 -0.088116
vn 0.000000 -0.996110 -0.088116
vn 0.000000 -0.996110 -0.088116
vn 0.000000 -0.996110 -0.088116
vn 0.000000 0.000000 -1.000000
vn 0.000000 0.000000 -1.000000
vn 0.000000 0.000000 -1.000000
vn 0.000000 0.000000 -1.000000
vn 0.000000 0.996110 -0.088116
vn 0.000000 0.996110 -0.088116
vn 0.000000 0.996110 -0.088116
vn 0.000000 0.996110 -0.088116
vn 0.728385 0.000000 0.685168
vn 0.728385 0.000000 0.685168
vn 0.728385 0.000000 0.685168
vn 0.728385 0.000000 0.685168
vn 0.000000 0.000000 -1.000000
vn 0.000000 0.000000 -1.000000
vn 0.000000 0.000000 -1.000000
vn 0.000000 0.000000 -1.000000
vn 0.728385 0.000000 0.685168
vn 0.728385 0.000000 0.685168
vn 0.728385 0.000000 0.685168
vn 0.728385 0.000000 0.685168
vn 0.728385 0.000000 -0.685168
vn 0.728385 0.000000 -0.685168
vn 0.728385 0.000000 -0.685168
vn 0.728385 0.000000 -0.685168
vn 0.728385 -0.000000 -0.685168
vn 0.728385 -0.000000 -0.685168
vn 0.728385 -0.000000 -0.685168
vn 0.728385 -0.000000 -0.685168
vn 0.000000 -0.948244 -0.317544
vn 0.000000 -0.948244 -0.317544
vn 0.000000 -0.948243 -0.317544
vn 0.000000 -0.948244 -0.317544
vn 0.000000 0.948244 -0.317544
vn 0.000000 0.948243 -0.317544
vn 0.000000 0.948244 -0.317544
vn 0.000000 0.948243 -0.317544
vn 0.000000 0.000000 -1.000000
vn 0.000000 0.000000 -1.000000
vn 0.000000 0.000000 -1.000000
vn 0.000000 0.000000 -1.000000
vn 0.000000 -0.948244 0.317544
vn 0.000000 -0.948243 0.317544
vn 0.000000 -0.948244 0.317544
vn 0.000000 -0.948243 0.317544
vn 0.000000 0.000000 1.000000
vn 0.000000 0.000000 1.000000
vn 0.000000 0.000000 1.000000
vn 0.000000 0.000000 1.000000
vn 0.000000 0.948244 0.317544
vn 0.000000 0.948244 0.317544
vn 0.000000 0.948243 0.317544
vn 0.000000 0.948244 0.317544
vn -0.710383 -0.287722 -0.642318
vn -0.710383 -0.287722 -0.642318
vn -0.710383 -0.287722 -0.642318
vn -0.710383 -0.287722 -0.642318
vn -0.710383 0.287722 -0.642318
vn -0.710383 0.287722 -0.642318
vn -0.710383 0.287722 -0.642318
vn -0.710383 0.287722 -0.642318
vn -0.668977 0.000000 -0.743284
vn -0.668976 0.000000 -0.743284
vn -0.668977 0.000000 -0.743284
vn -0.668977 0.000000 -0.743284
vn -0.710383 -0.287722 0.642318
vn -0.710383 -0.287722 0.642318
vn -0.710383 -0.287722 0.642318
vn -0.710383 -0.287722 0.642318
vn -0.668976 0.000000 0.743284
vn -0.668977 0.000000 0.743284
vn -0.668977 0.000000 0.743284
vn -0.668977 0.000000 0.743284
vn -0.710383 0.287722 0.642318
vn -0.710383 0.287722 0.642318
vn -0.710383 0.287722 0.642318
vn -0.710383 0.287722 0.642318
vn 0.000000 0.000000 1.000000
vn 0.000000 0.000000 1.000000
vn 0.000000 0.000000 1.000000
vn 0.000000 0.000000 1.000000
vn 0.000000 0.000000 -1.000000
vn 0.000000 0.000000 -1.000000
vn 0.000000 -0.000000 -1.000000
vn 0.000000 -0.000000 -1.000000
vn 0.000000 0.931659 0.363333
vn 0.000000 0.931659 0.363333
vn 0.000000 0.931659 0.363333
vn 0.000000 0.931659 0.363333
vn -0.981373 0.000000 0.192111
vn -0.981373 0.000000 0.192111
vn -0.981373 0.000000 0.192111
vn -0.981373 0.000000 0.192111
vn 0.000000 -0.931659 0.363333
vn 0.000000 -0.931659 0.363333
vn 0.000000 -0.931659 0.363333
vn 0.000000 -0.931659 0.363333
vn 0.981373 0.000000 0.192111
vn 0.981373 0.000000 0.192111
vn 0.981373 0.000000 0.192111
vn 0.981373 0.000000 0.192111
vn 0.981373 0.000000 0.192111
vn 0.981373 0.000000 0.192111
vn 0.981373 0.000000 0.192111
vn 0.981373 0.000000 0.192111
vn 0.981373 -0.000000 0.192111
vn 0.981373 -0.000000 0.192111
vn 0.981373 -0.000000 0.192111
vn 0.981373 -0.000000 0.192111
vn 0.000000 -0.931659 -0.363333
vn 0.000000 -0.931659 -0.363333
vn 0.000000 -0.931659 -0.363333
vn 0.000000 -0.931659 -0.363333
vn -0.981373 0.000000 -0.192111
vn -0.981373 0.000000 -0.192111
vn -0.981373 0.000000 -0.192111
vn -0.981373 0.000000 -0.192111
vn 0.000000 0.931659 -0.363333
vn 0.000000 0.931659 -0.363333
vn 0.000000 0.931659 -0.363333
vn 0.000000 0.931659 -0.363333
vn 0.981373 -0.000001 -0.192111
vn 0.981373 -0.000001 -0.192111
vn 0.981373 -0.000001 -0.192111
vn 0.981373 -0.000001 -0.192111
vn 0.981373 0.000000 -0.192111
vn 0.981373 0.000000 -0.192111
vn 0.981373 0.000000 -0.192111
vn 0.981373 0.000000 -0.192111
vn 0.981373 0.000001 -0.192111
vn 0.981373 0.000001 -0.192111
vn 0.981373 0.000001 -0.192111
vn 0.981373 0.000001 -0.192111
vn -0.981373 0.000000 -0.192111
vn -0.981373 0.000000 -0.192111
vn -0.981373 0.000000 -0.192111
vn -0.981373 0.000000 -0.192111
vn -0.728385 0.000000 -0.685168
vn -0.728385 0.000000 -0.685168
vn -0.728385 0.000000 -0.685168
vn -0.728385 0.000000 -0.685168
vn 0.000000 0.000000 1.000000
vn 0.000000 0.000000 1.000000
vn 0.000000 0.000000 1.000000
vn 0.000000 0.000000 1.000000
vn -0.668976 0.000000 -0.743284
vn -0.668976 0.000000 -0.743284
vn -0.668977 0.000000 -0.743284
vn -0.668977 0.000000 -0.743284
vn 0.000000 0.000000 -1.000000
vn 0.000000 0.000000 -1.000000
vn 0.000000 0.000000 -1.000000
vn 0.000000 0.000000 -1.000000
vn -0.792883 0.000000 -0.609374
vn -1.000000 0.000000 0.000000
vn -1.000000 0.000000 0.000000
vn -0.792883 0.000000 -0.609374
vn -0.792883 0.000000 0.609374
vn -0.792883 0.000000 0.609374
vn 0.000000 0.000000 1.000000
vn 0.000000 0.000000 1.000000
vn 0.000000 0.000000 1.000000
vn 0.000000 0.000000 1.000000
vn -0.668977 0.000000 0.743284
vn -0.668976 0.000000 0.743284
vn -0.668976 0.000000 0.743284
vn -0.668977 0.000000 0.743284
vn 0.000000 0.000000 -1.000000
vn 0.000000 0.000000 -1.000000
vn 0.000000 0.000000 -1.000000
vn 0.000000 0.000000 -1.000000
vn -0.728385 0.000000 0.685168
vn -0.728385 0.000000 0.685168
vn -0.728385 0.000000 0.685168
vn -0.728385 0.000000 0.685168
vn -0.981373 0.000000 0.192111
vn -0.981373 0.000000 0.192111
vn -0.981373 0.000000 0.192111
vn -0.981373 0.000000 0.192111
vn 0.000000 0.000001 -1.000000
vn 0.000000 0.000001 -1.000000
vn 0.000000 0.000000 1.000000
vn 0.000000 0.000000 1.000000
vn 0.000000 0.000000 1.000000
vn 0.000000 0.000000 1.000000
vn 0.000000 -0.000001 -1.000000
vn 0.000000 -0.000001 -1.000000
vn 0.999999 0.000000 -0.001289
vn 0.792883 0.000000 -0.609373
vn 0.792883 0.000000 0.609373
vn 0.792883 0.000000 0.609374
vn 0.999988 0.000000 -0.004907
vn 0.792883 0.000000 -0.609373
vn -0.000000 0.000000 1.000000
vn -0.000000 0.000000 1.000000
vn -0.000000 0.000000 1.000000
vn -0.000000 0.000000 1.000000
vn -0.000000 0.000000 -1.000000
vn -0.000000 0.000000 -1.000000
vn -0.000000 0.000000 -1.000000
vn -0.000000 0.000000 -1.000000
s off
g Nave_Espacial
usemtl initialShadingGroup
f 3/3/1 4/4/2 16/37/3 13/32/4
f 14/34/5 15/35/6 2/10/7 1/9/8
f 30/55/9 29/56/10 31/57/11 32/58/12
s 1
f 92/121/13 93/122/14 3/3/15 13/31/16
s 2
f 87/116/17 88/117/18 47/73/19 48/74/20
s 3
f 17/41/21 21/42/22 22/19/23 18/18/24
s 4
f 95/125/25 96/126/26 99/129/27 100/130/28
s 5
f 19/16/29 23/21/30 24/45/31 20/46/32
s 6
f 83/111/33 84/113/34 9/23/35 5/14/36
s off
f 7/7/37 8/8/38 11/27/39 10/26/40
f 38/59/41 37/60/42 39/61/43 40/62/44
f 9/24/45 12/29/46 6/6/47 5/5/48
s 2
f 88/117/18 89/118/49 50/76/50 47/73/19
s 3
f 18/18/24 22/19/23 27/49/51 25/50/52
s 4
f 96/126/26 97/127/53 98/128/54 99/129/27
s 5
f 26/53/55 28/54/56 23/21/30 19/16/29
s 7
f 9/23/57 84/113/58 85/114/59 20/39/60
s off
f 10/26/61 11/27/62 21/42/63 17/41/64
s 8
f 41/68/65 100/130/66 21/43/67 11/28/68
s off
f 12/29/69 9/24/70 20/46/71 24/45/72
s 9
f 92/121/73 13/31/74 26/48/75 91/120/76
s off
f 15/35/77 14/34/78 25/50/79 27/49/80
f 13/32/81 16/37/82 28/54/83 26/53/84
f 34/63/85 33/64/86 29/56/87 30/55/88
f 33/64/89 35/65/90 31/57/91 29/56/92
f 35/65/93 36/66/94 32/58/95 31/57/96
f 36/66/97 34/63/98 30/55/99 32/58/100
f 42/67/101 41/68/102 37/60/103 38/59/104
f 41/68/105 43/69/106 39/61/107 37/60/108
f 43/69/109 44/70/110 40/62/111 39/61/112
f 44/70/113 42/67/114 38/59/115 40/62/116
f 2/2/117 15/36/118 33/64/119 34/63/120
s 10
f 98/128/121 33/64/122 15/36/123 27/52/124
s off
f 16/38/125 4/4/126 36/66/127 35/65/128
f 11/28/129 8/11/130 43/69/131 41/68/132
f 6/12/133 12/30/134 42/67/135 44/70/136
f 51/77/137 52/78/138 46/72/139 45/71/140
f 53/79/141 54/80/142 48/74/143 47/73/144
s 11
f 54/80/145 86/115/146 87/116/147 48/74/148
s off
f 52/78/149 55/81/150 49/75/151 46/72/152
s 12
f 90/119/153 56/82/154 50/76/155 89/118/156
s off
f 56/82/157 53/79/158 47/73/159 50/76/160
f 17/40/161 18/17/162 52/78/163 51/77/164
f 19/15/165 20/39/166 54/80/167 53/79/168
s 13
f 20/39/169 85/114/170 86/115/171 54/80/172
s off
f 18/17/173 25/47/174 55/81/175 52/78/176
s 14
f 91/120/177 26/48/178 56/82/179 90/119/180
s off
f 26/48/181 19/15/182 53/79/183 56/82/184
s 15
f 58/83/185 57/84/186 94/124/187 62/88/188
s 16
f 68/94/189 69/95/190 82/110/191 67/93/192
s off
f 4/4/193 3/3/194 57/84/195 58/83/196
s 17
f 3/3/197 93/123/198 94/124/199 57/84/200
s off
f 1/9/201 2/2/202 60/86/203 59/85/204
f 2/2/205 34/63/206 61/87/207 60/86/208
f 34/63/209 36/66/210 62/88/211 61/87/212
f 36/66/213 4/4/214 58/83/215 62/88/216
f 8/8/217 7/13/218 63/90/219 64/89/220
s 18
f 83/112/221 5/5/222 65/91/223 82/110/224
s off
f 5/5/225 6/12/226 66/92/227 65/91/228
f 6/12/229 44/70/230 67/93/231 66/92/232
f 44/70/233 43/69/234 68/94/235 67/93/236
f 43/69/237 8/8/238 64/89/239 68/94/240
s 18
f 7/13/241 70/97/242 69/95/243 63/90/244
s 6
f 7/13/245 10/25/246 71/98/247 70/96/248
s 7
f 72/99/249 71/98/250 10/25/251 17/40/252
s 13
f 73/100/253 72/99/254 17/40/255 51/77/256
s 11
f 74/101/257 73/100/258 51/77/259 45/71/260
s 2
f 45/71/261 46/72/262 75/102/263 74/101/264
f 46/72/262 49/75/265 76/103/266 75/102/263
s 12
f 55/81/267 77/104/268 76/103/269 49/75/270
s 14
f 25/47/271 78/105/272 77/104/273 55/81/274
s 9
f 14/33/275 79/106/276 78/105/277 25/47/278
s 1
f 14/33/279 1/1/280 80/107/281 79/106/282
s 17
f 81/109/283 80/108/284 1/9/285 59/85/286
s 18
f 70/97/242 83/112/221 82/110/224 69/95/243
s 6
f 70/96/248 71/98/247 84/113/34 83/111/33
s 7
f 85/114/59 84/113/58 71/98/250 72/99/249
s 13
f 86/115/171 85/114/170 72/99/254 73/100/253
s 11
f 87/116/147 86/115/146 73/100/258 74/101/257
s 2
f 74/101/264 75/102/263 88/117/18 87/116/17
f 75/102/263 76/103/266 89/118/49 88/117/18
s 12
f 77/104/268 90/119/153 89/118/156 76/103/269
s 14
f 78/105/272 91/120/177 90/119/180 77/104/273
s 9
f 79/106/276 92/121/73 91/120/76 78/105/277
s 1
f 79/106/282 80/107/281 93/122/14 92/121/13
s 17
f 94/124/199 93/123/198 80/108/284 81/109/283
s 16
f 64/89/287 63/90/288 69/95/190 68/94/189
s 15
f 62/88/188 94/124/187 81/109/289 61/87/290
f 61/87/290 81/109/289 59/85/291 60/86/292
s 16
f 67/93/192 82/110/191 65/91/293 66/92/294
s 4
f 23/22/295 96/126/26 95/125/25 24/44/296
f 28/51/297 97/127/53 96/126/26 23/22/295
f 99/129/27 98/128/54 27/52/298 22/20/299
f 100/130/28 99/129/27 22/20/299 21/43/300
s 8
f 12/30/301 24/44/302 95/125/303 42/67/304
f 42/67/304 95/125/303 100/130/66 41/68/65
s 10
f 16/38/305 35/65/306 97/127/307 28/51/308
f 97/127/307 35/65/306 33/64/122 98/128/121
